<svg width="1000" height="1000" xmlns="http://www.w3.org/2000/svg" xmlns:xlink="http://www.w3.org/1999/xlink" version="1.1" baseProfile="full" viewBox="0 0 1000 1000">
<rect width="1000" height="1000" x="0" y="0" id="0" fill="none"></rect>
<polyline points="595.7 269 601.4 255.2 616.4 255.2" fill="none" stroke="#5470c6"></polyline>
<polyline points="721.7 408.2 744.8 398.6 759.8 398.6" fill="none" stroke="#91cc75"></polyline>
<polyline points="694 580.4 744.8 601.4 759.8 601.4" fill="none" stroke="#fac858"></polyline>
<polyline points="576.5 684.8 601.4 744.8 616.4 744.8" fill="none" stroke="#ee6666"></polyline>
<polyline points="427.3 675.5 398.6 744.8 383.6 744.8" fill="none" stroke="#73c0de"></polyline>
<polyline points="333.7 568.9 255.2 601.4 240.2 601.4" fill="none" stroke="#3ba272"></polyline>
<polyline points="352.2 438.8 255.2 398.6 240.2 398.6" fill="none" stroke="#fc8452"></polyline>
<polyline points="446.4 370.7 398.6 255.2 383.6 255.2" fill="none" stroke="#9a60b4"></polyline>
<path d="M500 258.1A8 8 0 0 1 508.3 250.1A250 250 0 0 1 670.8 317.5A8 8 0 0 1 671 329L540.6 459.4A8 8 0 0 1 530.1 460.1A50 50 0 0 0 506.9 450.5A8 8 0 0 1 500 442.6Z" fill="#5470c6"></path>
<path d="M664 336A8 8 0 0 1 675.5 336.2A240 240 0 0 1 739.9 491.7A8 8 0 0 1 731.9 500L557.4 500A8 8 0 0 1 549.5 493.1A50 50 0 0 0 539.9 469.9A8 8 0 0 1 540.6 459.4Z" fill="#91cc75"></path>
<path d="M701.8 500A8 8 0 0 1 709.8 508.3A210 210 0 0 1 654.3 642.5A8 8 0 0 1 642.7 642.7L540.6 540.6A8 8 0 0 1 539.9 530.1A50 50 0 0 0 549.5 506.9A8 8 0 0 1 557.4 500Z" fill="#fac858"></path>
<path d="M635.6 635.6A8 8 0 0 1 635.4 647.2A200 200 0 0 1 508.3 699.8A8 8 0 0 1 500 691.8L500 557.4A8 8 0 0 1 506.9 549.5A50 50 0 0 0 530.1 539.9A8 8 0 0 1 540.6 540.6Z" fill="#ee6666"></path>
<path d="M500 681.8A8 8 0 0 1 491.6 689.8A190 190 0 0 1 371.7 640.1A8 8 0 0 1 371.4 628.6L459.4 540.6A8 8 0 0 1 469.9 539.9A50 50 0 0 0 493.1 549.5A8 8 0 0 1 500 557.4Z" fill="#73c0de"></path>
<path d="M378.5 621.5A8 8 0 0 1 366.9 621.2A180 180 0 0 1 320.2 508.4A8 8 0 0 1 328.2 500L442.6 500A8 8 0 0 1 450.5 506.9A50 50 0 0 0 460.1 530.1A8 8 0 0 1 459.4 540.6Z" fill="#3ba272"></path>
<path d="M348.2 500A8 8 0 0 1 340.2 491.6A160 160 0 0 1 381.1 393A8 8 0 0 1 392.7 392.7L459.4 459.4A8 8 0 0 1 460.1 469.9A50 50 0 0 0 450.5 493.1A8 8 0 0 1 442.6 500Z" fill="#fc8452"></path>
<path d="M406.8 406.8A8 8 0 0 1 407.2 395.2A140 140 0 0 1 491.5 360.3A8 8 0 0 1 500 368.2L500 442.6A8 8 0 0 1 493.1 450.5A50 50 0 0 0 469.9 460.1A8 8 0 0 1 459.4 459.4Z" fill="#9a60b4"></path>
<text dominant-baseline="central" text-anchor="start" style="font-size:12px;font-family:sans-serif;" xml:space="preserve" transform="translate(621.4111 255.1719)" fill="#333" stroke="rgb(255,255,255)" stroke-width="2" paint-order="stroke" stroke-miterlimit="2">rose 1</text>
<text dominant-baseline="central" text-anchor="start" style="font-size:12px;font-family:sans-serif;" xml:space="preserve" transform="translate(764.8281 398.5889)" fill="#333" stroke="rgb(255,255,255)" stroke-width="2" paint-order="stroke" stroke-miterlimit="2">rose 2</text>
<text dominant-baseline="central" text-anchor="start" style="font-size:12px;font-family:sans-serif;" xml:space="preserve" transform="translate(764.8281 601.4111)" fill="#333" stroke="rgb(255,255,255)" stroke-width="2" paint-order="stroke" stroke-miterlimit="2">rose 3</text>
<text dominant-baseline="central" text-anchor="start" style="font-size:12px;font-family:sans-serif;" xml:space="preserve" transform="translate(621.4111 744.8281)" fill="#333" stroke="rgb(255,255,255)" stroke-width="2" paint-order="stroke" stroke-miterlimit="2">rose 4</text>
<text dominant-baseline="central" text-anchor="end" style="font-size:12px;font-family:sans-serif;" xml:space="preserve" transform="translate(378.5889 744.8281)" fill="#333" stroke="rgb(255,255,255)" stroke-width="2" paint-order="stroke" stroke-miterlimit="2">rose 5</text>
<text dominant-baseline="central" text-anchor="end" style="font-size:12px;font-family:sans-serif;" xml:space="preserve" transform="translate(235.1719 601.4111)" fill="#333" stroke="rgb(255,255,255)" stroke-width="2" paint-order="stroke" stroke-miterlimit="2">rose 6</text>
<text dominant-baseline="central" text-anchor="end" style="font-size:12px;font-family:sans-serif;" xml:space="preserve" transform="translate(235.1719 398.5889)" fill="#333" stroke="rgb(255,255,255)" stroke-width="2" paint-order="stroke" stroke-miterlimit="2">rose 7</text>
<text dominant-baseline="central" text-anchor="end" style="font-size:12px;font-family:sans-serif;" xml:space="preserve" transform="translate(378.5889 255.1719)" fill="#333" stroke="rgb(255,255,255)" stroke-width="2" paint-order="stroke" stroke-miterlimit="2">rose 8</text>
<path d="M-5 -5l587.8 0l0 24l-587.8 0Z" transform="translate(211.08 981)" fill="rgb(0,0,0)" fill-opacity="0" stroke="#ccc" stroke-width="0"></path>
<path d="M3.5 0L21.5 0A3.5 3.5 0 0 1 25 3.5L25 10.5A3.5 3.5 0 0 1 21.5 14L3.5 14A3.5 3.5 0 0 1 0 10.5L0 3.5A3.5 3.5 0 0 1 3.5 0" transform="translate(211.08 981)" fill="#5470c6"></path>
<text dominant-baseline="central" text-anchor="start" style="font-size:12px;font-family:sans-serif;" xml:space="preserve" x="30" y="7" transform="translate(211.08 981)" fill="#333">rose 1</text>
<path d="M3.5 0L21.5 0A3.5 3.5 0 0 1 25 3.5L25 10.5A3.5 3.5 0 0 1 21.5 14L3.5 14A3.5 3.5 0 0 1 0 10.5L0 3.5A3.5 3.5 0 0 1 3.5 0" transform="translate(284.56 981)" fill="#91cc75"></path>
<text dominant-baseline="central" text-anchor="start" style="font-size:12px;font-family:sans-serif;" xml:space="preserve" x="30" y="7" transform="translate(284.56 981)" fill="#333">rose 2</text>
<path d="M3.5 0L21.5 0A3.5 3.5 0 0 1 25 3.5L25 10.5A3.5 3.5 0 0 1 21.5 14L3.5 14A3.5 3.5 0 0 1 0 10.5L0 3.5A3.5 3.5 0 0 1 3.5 0" transform="translate(358.04 981)" fill="#fac858"></path>
<text dominant-baseline="central" text-anchor="start" style="font-size:12px;font-family:sans-serif;" xml:space="preserve" x="30" y="7" transform="translate(358.04 981)" fill="#333">rose 3</text>
<path d="M3.5 0L21.5 0A3.5 3.5 0 0 1 25 3.5L25 10.5A3.5 3.5 0 0 1 21.5 14L3.5 14A3.5 3.5 0 0 1 0 10.5L0 3.5A3.5 3.5 0 0 1 3.5 0" transform="translate(431.52 981)" fill="#ee6666"></path>
<text dominant-baseline="central" text-anchor="start" style="font-size:12px;font-family:sans-serif;" xml:space="preserve" x="30" y="7" transform="translate(431.52 981)" fill="#333">rose 4</text>
<path d="M3.5 0L21.5 0A3.5 3.5 0 0 1 25 3.5L25 10.5A3.5 3.5 0 0 1 21.5 14L3.5 14A3.5 3.5 0 0 1 0 10.5L0 3.5A3.5 3.5 0 0 1 3.5 0" transform="translate(505 981)" fill="#73c0de"></path>
<text dominant-baseline="central" text-anchor="start" style="font-size:12px;font-family:sans-serif;" xml:space="preserve" x="30" y="7" transform="translate(505 981)" fill="#333">rose 5</text>
<path d="M3.5 0L21.5 0A3.5 3.5 0 0 1 25 3.5L25 10.5A3.5 3.5 0 0 1 21.5 14L3.5 14A3.5 3.5 0 0 1 0 10.5L0 3.5A3.5 3.5 0 0 1 3.5 0" transform="translate(578.48 981)" fill="#3ba272"></path>
<text dominant-baseline="central" text-anchor="start" style="font-size:12px;font-family:sans-serif;" xml:space="preserve" x="30" y="7" transform="translate(578.48 981)" fill="#333">rose 6</text>
<path d="M3.5 0L21.5 0A3.5 3.5 0 0 1 25 3.5L25 10.5A3.5 3.5 0 0 1 21.5 14L3.5 14A3.5 3.5 0 0 1 0 10.5L0 3.5A3.5 3.5 0 0 1 3.5 0" transform="translate(651.96 981)" fill="#fc8452"></path>
<text dominant-baseline="central" text-anchor="start" style="font-size:12px;font-family:sans-serif;" xml:space="preserve" x="30" y="7" transform="translate(651.96 981)" fill="#333">rose 7</text>
<path d="M3.5 0L21.5 0A3.5 3.5 0 0 1 25 3.5L25 10.5A3.5 3.5 0 0 1 21.5 14L3.5 14A3.5 3.5 0 0 1 0 10.5L0 3.5A3.5 3.5 0 0 1 3.5 0" transform="translate(725.44 981)" fill="#9a60b4"></path>
<text dominant-baseline="central" text-anchor="start" style="font-size:12px;font-family:sans-serif;" xml:space="preserve" x="30" y="7" transform="translate(725.44 981)" fill="#333">rose 8</text>
<path d="M-12.8 -15l79.5 0l0 30l-79.5 0Z" transform="translate(933.337 15)" fill="none" stroke="#ccc" stroke-width="0"></path>
<path d="M-3.7 -3.4L0.5 -3.4M-3.7 -3.4L0.5 -3.4M3.8 -0.1L-3.7 -0.1M-5.3 -7.5L-5.3 7.5L5.3 7.5L5.3 -4.1L1.9 -7.5L-5.3 -7.5ZM1.9 -7.4L1.9 -4L5.3 -4M3.8 3.1L-3.7 3.1" transform="translate(933.337 15)" fill="none" stroke="#666"></path>
<path d="M-7 0.9M4.5 -3L7.2 -3L7.2 -5.7M7 -2.6C5.9 -5.6 2.8 -7.9 -0.9 -7.5C-4.6 -7 -7.6 -3.7 -7.5 0.2M-4.5 3L-7.2 3L-7.2 5.7M-7 2.6C-5.9 5.6 -2.8 7.9 0.9 7.5C4.6 7 7.6 3.7 7.5 -0.2" transform="translate(959.0851 15)" fill="none" stroke="#666"></path>
<path d="M-6.5 -1.6L-0.1 4.3L6.5 -1.4M-6.5 3.8L-6.5 7.5L6.2 7.5L6.2 3.8M-0.1 4.2L-0.1 -7.5" transform="translate(986.0216 15)" fill="none" stroke="#666"></path>
</svg>